# AST/ASF file generated using VICON BodyLanguage
# -----------------------------------------------
:version 1.10
:name VICON
:units
  mass 1.0
  length 0.45
  angle deg
:documentation
   .ast/.asf automatically generated from VICON data using
   VICON BodyBuilder and BodyLanguage model FoxedUp or BRILLIANT.MOD
:root
   order TX TY TZ RX RY RZ
   axis XYZ
   position 0 0 0  
   orientation 0 0 0 
:bonedata
  begin
     id 1 
     name lhipjoint
     direction 0.570549 -0.739093 0.358072 
     length 2.41801 
     axis 0 0 0  XYZ
  end
  begin
     id 2 
     name lfemur
     direction 0.34202 -0.939693 0  
     length 7.44434  
     axis 0 0 20  XYZ
    dof rx ry rz
    limits (-160.0 20.0)
           (-70.0 70.0)
           (-60.0 70.0)
  end
  begin
     id 3 
     name ltibia
     direction 0.34202 -0.939693 0   
     length 7.60047   
     axis 0 0 20   XYZ
    dof rx
    limits (-10.0 170.0)
  end
  begin
     id 4 
     name lfoot
     direction 0.0909041 -0.249757 0.964032   
     length 2.03437   
     axis -90 7.62852e-016 20   XYZ
    dof rx rz
    limits (-45.0 90.0)
           (-70.0 20.0)
  end
  begin
     id 5 
     name ltoes
     direction 1.53547e-011 -4.2174e-011 1   
     length 1.02054   
     axis -90 7.62852e-016 20   XYZ
    dof rx
    limits (-90.0 20.0)
  end
  begin
     id 6 
     name rhipjoint
     direction -0.558096 -0.746754 0.361784   
     length 2.3932  
     axis 0 0 0  XYZ 
  end
  begin
     id 7 
     name rfemur
     direction -0.34202 -0.939693 0   
     length 7.3886   
     axis 0 0 -20   XYZ
    dof rx ry rz
    limits (-160.0 20.0)
           (-70.0 70.0)
           (-70.0 60.0)
  end
  begin
     id 8 
     name rtibia
     direction -0.34202 -0.939693 0   
     length 7.4839   
     axis 0 0 -20   XYZ
    dof rx
    limits (-10.0 170.0)
 end
 begin
     id 9 
     name rfoot
     direction -0.114619 -0.314914 0.942174   
     length 2.25127  
     axis -90 -7.62852e-016 -20   XYZ
    dof rx rz
    limits (-45.0 90.0)
           (-20.0 70.0)
  end
  begin
     id 10 
     name rtoes
     direction -1.53518e-011 -4.21881e-011 1   
     length 1.11821   
     axis -90 -7.62852e-016 -20   XYZ
    dof rx
    limits (-90.0 20.0)
  end
  begin
     id 11 
     name lowerback
     direction -0.00902269 0.996426 -0.0839821   
     length 2.25052   
     axis 0 0 0   XYZ
    dof rx ry rz
    limits (-20.0 45.0)
           (-30.0 30.0)
           (-30.0 30.0)
  end
  begin
     id 12 
     name upperback
     direction 0.0370973 0.999169 -0.0168941   
     length 2.24876   
     axis 0 0 0   XYZ
    dof rx ry rz
    limits (-20.0 45.0)
           (-30.0 30.0)
           (-30.0 30.0)
  end
  begin
     id 13 
     name thorax
     direction 0.0402726 0.998931 0.0227027   
     length 2.26408   
     axis 0 0 0   XYZ
    dof rx ry rz
    limits (-20.0 45.0)
           (-30.0 30.0)
           (-30.0 30.0)
  end
  begin
     id 14 
     name lowerneck
     direction -0.0733697 0.98508 0.155675   
     length 1.58204   
     axis 0 0 0   XYZ
    dof rx ry rz
    limits (-20.0 45.0)
           (-30.0 30.0)
           (-30.0 30.0)
  end
  begin
     id 15 
     name upperneck
     direction 0.0426554 0.993501 -0.105526   
     length 1.61222   
     axis 0 0 0   XYZ
    dof rx ry rz
    limits (-20.0 45.0)
           (-30.0 30.0)
           (-30.0 30.0)
  end
  begin
     id 16
     name head
     direction 0.020792 0.998384 -0.0528868  
     length 1.61527  
     axis 0 0 0   XYZ
    dof rx ry rz
    limits (-20.0 45.0)
           (-30.0 30.0)
           (-30.0 30.0)
  end
  begin
     id 17 
     name lclavicle
     direction 0.967109 0.155462 -0.201325  
     length 3.59357  
     axis 0 0 0   XYZ
    dof ry rz
    limits (-20.0 10.0)
           (0.0 20.0)
  end
  begin
     id 18 
     name lhumerus
     direction 1 -4.48968e-011 2.38195e-027   
     length 5.38154   
     axis 180 -30 -90   XYZ
    dof rx ry rz
    limits (-60.0 90.0)
           (-90.0 90.0)
           (-90.0 90.0)
  end
  begin
     id 19
     name lradius
     direction 1 -4.48961e-011 4.85371e-027   
     length 3.33312   
     axis 180 -30 -90   XYZ
    dof rx
    limits (-10.0 170.0)
  end
  begin
     id 20
     name lwrist
     direction 1 -4.48961e-011 4.76515e-027   
     length 1.66656   
     axis -3.27502e-015 90 90   XYZ
    dof ry
    limits (-180.0 0.0)
 end
  begin
     id 21 
     name lhand
     direction 1 -4.48951e-011 9.53074e-027   
     length 0.710789   
     axis -6.08098e-015 90 90   XYZ
    dof rx rz
    limits (-90.0 90.0)
           (-45.0 45.0)
  end
  begin
     id 22 
     name lfingers
     direction 1 -4.48953e-011 1.90613e-026   
     length 0.573057   
     axis -1.21619e-014 90 90   XYZ
    dof rx
    limits (0.0 90.0)
  end
  begin
     id 23
     name lthumb
     direction 0.707107 -6.34973e-011 0.707107   
     length 0.822798   
     axis -90 45 -9.86923e-015   XYZ
    dof rx rz
    limits (-45.0 45.0)
           (-45.0 45.0)
  end
  begin
     id 24 
     name rclavicle
     direction -0.9585 0.265289 -0.104398   
     length 3.42039  
     axis 0 0 0   XYZ 
    dof ry rz
    limits (-10.0 20.0)
           (-20.0 0.0)
  end
  begin
     id 25 
     name rhumerus
     direction -1 -4.48977e-011 2.21478e-027  
     length 5.16954   
     axis 180 30 90   XYZ
    dof rx ry rz
    limits (-90.0 60.0)
           (-90.0 90.0)
           (-90.0 90.0)
  end
  begin
     id 26 
     name rradius
     direction -1 -4.48967e-011 5.63677e-027   
     length 3.38287   
     axis 180 30 90   XYZ
    dof rx
    limits (-10.0 170.0)
  end
  begin
     id 27 
     name rwrist
     direction -1 -4.48967e-011 4.76501e-027   
     length 1.69144   
     axis -3.27502e-015 -90 -90   XYZ
    dof ry
    limits (-180.0 0.0)
  end
  begin
     id 28
     name rhand
     direction -1 -4.48902e-011 9.53292e-027   
     length 0.817967   
     axis -6.08098e-015 -90 -90   XYZ
    dof rx rz
    limits (-90.0 90.0)
           (-45.0 45.0)
  end
  begin
     id 29
     name rfingers
     direction -1 -4.49012e-011 1.90561e-026   
     length 0.659466   
     axis -1.21619e-014 -90 -90   XYZ
    dof rx
    limits (0.0 90.0)
  end
  begin
     id 30
     name rthumb
     direction -0.707107 -6.34944e-011 0.707107   
     length 0.946865   
     axis -90 -45 9.86923e-015   XYZ
    dof rx rz
    limits (-45.0 45.0)
           (-45.0 45.0)
  end
:hierarchy
  begin
    root lhipjoint rhipjoint lowerback
    lhipjoint lfemur
    lfemur ltibia
    ltibia lfoot
    lfoot ltoes
    rhipjoint rfemur
    rfemur rtibia
    rtibia rfoot
    rfoot rtoes
    lowerback upperback
    upperback thorax
    thorax lowerneck lclavicle rclavicle
    lowerneck upperneck
    upperneck head
    lclavicle lhumerus
    lhumerus lradius
    lradius lwrist
    lwrist lhand lthumb
    lhand lfingers
    rclavicle rhumerus
    rhumerus rradius
    rradius rwrist
    rwrist rhand rthumb
    rhand rfingers
  end

#!OML:ASF F:\twosubjects\two\wednesday\Session 1\Justin1.ASF
:FULLY-SPECIFIED
:DEGREES
33
root 3.59003 17.5717 19.0447 181.859 -17.9126 -182.048
lowerback 3.36977 -0.645937 -7.76159
upperback 1.48698 -1.22877 -1.52404
thorax -0.229509 -0.693955 2.81648
lowerneck -18.6492 -5.61395 -10.6048
upperneck 15.1224 -6.01074 6.20813
head 8.27449 -2.86333 3.04106
rclavicle 4.78077e-014 -1.35174e-014
rhumerus 39.3095 -4.37734 -39.9068
rradius 34.36
rwrist -4.77543
rhand -8.03549 24.4748
rfingers 7.12502
rthumb 17.8747 -4.72375
lclavicle 4.78077e-014 -1.35174e-014
lhumerus 22.3068 0.237389 55.1744
lradius 33.0592
lwrist -18.5146
lhand 5.08036 35.2474
lfingers 7.12502
lthumb 30.4466 62.7529
rfemur -28.897 -8.81071 11.8917
rtibia 16.4093
rfoot -7.74747 -19.8471
rtoes -6.13382
lfemur 4.0987 -2.25587 -18.4037
ltibia 22.753
lfoot -23.2137 -12.398
ltoes -8.91341
34
root 3.59231 17.5301 18.9031 181.881 -18.2001 -182.421
lowerback 3.70389 -0.760129 -7.74672
upperback 1.21655 -1.42665 -1.60668
thorax -0.678655 -0.768738 2.73967
lowerneck -18.1536 -5.44525 -10.6434
upperneck 15.2317 -5.84548 6.23402
head 8.21287 -2.79905 3.0863
rclavicle -2.05245e-014 4.77083e-015
rhumerus 39.1197 -3.88327 -40.5199
rradius 34.2196
rwrist -4.33702
rhand -7.70643 24.286
rfingers 7.12502
rthumb 18.1913 -4.88336
lclavicle -2.05245e-014 4.77083e-015
lhumerus 21.7783 0.192097 55.0826
lradius 33.1627
lwrist -18.6758
lhand 5.22184 35.1345
lfingers 7.12502
lthumb 30.5815 62.6149
rfemur -28.969 -9.23786 11.8306
rtibia 16.9613
rfoot -8.41438 -19.6637
rtoes -4.48357
lfemur 4.85227 -1.94957 -18.6205
ltibia 22.3161
lfoot -23.5491 -11.8138
ltoes -14.5016
35
root 3.59909 17.5016 18.7645 181.77 -18.4163 -182.569
lowerback 3.9947 -0.620276 -7.55994
upperback 1.04202 -1.27443 -1.72929
thorax -1.0457 -0.67629 2.51127
lowerneck -17.4856 -5.44141 -10.4282
upperneck 15.2609 -6.00185 6.314
head 8.11614 -2.87018 3.06781
rclavicle -2.34566e-014 -5.56597e-014
rhumerus 38.4348 -3.77274 -40.8816
rradius 34.111
rwrist -4.36545
rhand -7.58509 24.2243
rfingers 7.12502
rthumb 18.308 -4.93414
lclavicle -2.34566e-014 -5.56597e-014
lhumerus 21.8665 -0.401411 55.0698
lradius 33.1828
lwrist -18.7204
lhand 5.29364 34.9195
lfingers 7.12502
lthumb 30.65 62.3871
rfemur -28.9804 -9.27643 11.8699
rtibia 17.5558
rfoot -9.04322 -19.8459
rtoes -1.38891
lfemur 5.64161 -1.83527 -18.616
ltibia 21.9865
lfoot -23.6242 -11.6279
ltoes -15.4229
36
root 3.6069 17.4867 18.6232 181.812 -18.5634 -182.702
lowerback 4.01162 -0.125283 -7.22762
upperback 1.04122 -0.628739 -2.13498
thorax -1.12933 -0.360424 1.87906
lowerneck -17.0259 -5.75335 -9.1499
upperneck 14.9655 -6.73628 6.01719
head 7.94489 -3.18112 2.67273
rclavicle -9.64106e-015 -1.27222e-014
rhumerus 37.2089 -4.99067 -41.5371
rradius 33.8344
rwrist -3.67293
rhand -7.61276 24.3947
rfingers 7.12502
rthumb 18.2814 -4.76626
lclavicle -9.64106e-015 -1.27222e-014
lhumerus 23.0815 -2.26424 54.6498
lradius 33.1657
lwrist -18.0943
lhand 4.99597 35.1748
lfingers 7.12502
lthumb 30.3661 62.6951
rfemur -29.1039 -9.44844 12.0219
rtibia 18.14
rfoot -9.33078 -19.6967
rtoes 1.59513
lfemur 6.28987 -1.66459 -18.5135
ltibia 21.7273
lfoot -23.1815 -12.5159
ltoes -9.23065
37
root 3.61322 17.4675 18.4736 181.829 -18.7713 -182.797
lowerback 4.12511 -0.712163 -7.24585
upperback 1.06931 -1.38653 -1.6408
thorax -1.08442 -0.72909 2.4351
lowerneck -17.9748 -5.42259 -9.99103
upperneck 15.3461 -5.95928 5.92492
head 8.19884 -2.85183 2.86386
rclavicle 1.19271e-015 6.36111e-015
rhumerus 38.7499 -3.43982 -41.5699
rradius 33.6229
rwrist -3.87588
rhand -7.5419 24.4435
rfingers 7.12502
rthumb 18.3496 -4.71103
lclavicle 1.19271e-015 6.36111e-015
lhumerus 22.2467 -0.992815 54.4662
lradius 33.1545
lwrist -17.7533
lhand 4.61422 35.4425
lfingers 7.12502
lthumb 30.0019 63.0294
rfemur -29.2168 -10.1614 12.4904
rtibia 18.8161
rfoot -8.67462 -19.2043
rtoes 1.16649
lfemur 6.9861 -1.4542 -18.3368
ltibia 21.4494
lfoot -22.2832 -13.5794
ltoes -2.269
38
root 3.62228 17.439 18.3182 181.647 -18.9622 -182.472
lowerback 4.14095 -0.92608 -6.87879
upperback 1.10709 -1.62691 -1.2199
thorax -1.028 -0.842817 2.67535
lowerneck -18.4457 -5.33737 -10.3815
upperneck 15.6876 -5.68244 5.83362
head 8.38193 -2.74843 2.92681
rclavicle -3.26007e-014 2.42517e-014
rhumerus 39.054 -2.22092 -40.9353
rradius 33.8378
rwrist -5.02213
rhand -7.55535 24.419
rfingers 7.12502
rthumb 18.3366 -4.73678
lclavicle -3.26007e-014 2.42517e-014
lhumerus 22.0999 -0.981983 54.184
lradius 32.9492
lwrist -17.2422
lhand 4.48655 35.3654
lfingers 7.12502
lthumb 29.8801 62.9744
rfemur -29.2277 -10.5946 13.3361
rtibia 19.6225
rfoot -8.53816 -19.2478
rtoes -0.778365
lfemur 7.77098 -1.4435 -17.8006
ltibia 21.2826
lfoot -21.6788 -13.9663
ltoes 1.91426
39
root 3.63359 17.4218 18.161 181.553 -19.0273 -182.409
lowerback 4.03055 -0.704178 -6.70472
upperback 1.08642 -1.30874 -1.14082
thorax -1.0201 -0.681589 2.64395
lowerneck -17.9999 -5.4583 -10.2106
upperneck 15.6455 -5.95492 5.86019
head 8.30886 -2.87396 2.87771
rclavicle 3.32964e-014 -3.18055e-015
rhumerus 38.4125 -2.21533 -40.8952
rradius 34.0662
rwrist -5.09779
rhand -7.40458 24.2631
rfingers 7.12502
rthumb 18.4817 -4.87894
lclavicle 3.32964e-014 -3.18055e-015
lhumerus 22.6624 -2.01219 53.9892
lradius 32.7513
lwrist -16.8398
lhand 4.54425 35.3633
lfingers 7.12502
lthumb 29.9352 62.9623
rfemur -29.2402 -10.6263 13.7422
rtibia 20.6079
rfoot -9.1341 -19.6118
rtoes 0.855819
lfemur 8.52946 -1.45162 -17.5824
ltibia 21.1862
lfoot -21.5651 -13.8636
ltoes 1.95927
40
root 3.64194 17.4046 18.0021 181.902 -19.2018 -183.251
lowerback 3.97478 -0.551014 -7.07649
upperback 0.869357 -1.14525 -1.51443
thorax -1.23013 -0.593636 2.45981
lowerneck -17.2623 -5.53658 -9.74633
upperneck 15.4712 -6.28263 5.94453
head 8.13639 -3.00905 2.79938
rclavicle 5.9039e-014 7.95139e-015
rhumerus 37.712 -2.06005 -41.1516
rradius 33.9547
rwrist -4.64019
rhand -7.6879 24.2511
rfingers 7.12502
rthumb 18.2091 -4.91662
lclavicle 5.9039e-014 7.95139e-015
lhumerus 23.0375 -3.18948 53.4445
lradius 32.8904
lwrist -16.3796
lhand 4.3482 35.7823
lfingers 7.12502
lthumb 29.7481 63.4149
rfemur -29.4464 -11.2896 13.4259
rtibia 21.7319
rfoot -8.87647 -19.5156
rtoes 1.58918
lfemur 8.94685 -1.00329 -18.2603
ltibia 20.9376
lfoot -21.7768 -13.0061
ltoes -6.36221
41
root 3.65058 17.381 17.8399 182.42 -19.3986 -184.338
lowerback 4.0329 -0.823231 -7.87147
upperback 0.566951 -1.56496 -1.51508
thorax -1.51569 -0.782975 2.9255
lowerneck -17.1387 -5.36968 -10.1326
upperneck 15.5167 -5.96516 5.90428
head 8.11529 -2.88953 2.89183
rclavicle 3.30976e-014 5.1684e-015
rhumerus 38.2725 -0.894871 -41.3915
rradius 33.5127
rwrist -4.58056
rhand -8.21451 24.7498
rfingers 7.12502
rthumb 17.7024 -4.46441
lclavicle 3.30976e-014 5.1684e-015
lhumerus 22.4561 -2.9845 53.1526
lradius 33.0831
lwrist -16.214
lhand 3.70771 36.0092
lfingers 7.12502
lthumb 29.1366 63.7494
rfemur -29.6952 -11.9114 12.8389
rtibia 22.7721
rfoot -7.89611 -19.3626
rtoes 0.174107
lfemur 9.25577 -0.559422 -19.1057
ltibia 20.6646
lfoot -21.3096 -12.8425
ltoes -10.4527
